{
	"asset":{
		"generator":"Khronos glTF Blender I/O v4.5.47",
		"version":"2.0"
	},
	"extensionsUsed":[
		"KHR_materials_specular",
		"KHR_materials_ior"
	],
	"scene":0,
	"scenes":[
		{
			"name":"Scene",
			"nodes":[
				34
			]
		}
	],
	"nodes":[
		{
			"name":"Cloth",
			"translation":[
				0,
				0.699999988079071,
				0
			]
		},
		{
			"name":"Tail_6_L",
			"translation":[
				0.5106838941574097,
				5.374147349357372e-09,
				-1.1643206399014616e-08
			]
		},
		{
			"children":[
				1
			],
			"name":"Tail_5_L",
			"translation":[
				0.3818809986114502,
				4.417302079673391e-10,
				-8.974964771368832e-08
			]
		},
		{
			"children":[
				2
			],
			"name":"Tail_4_L",
			"translation":[
				0.3939390182495117,
				-1.1027481150449603e-08,
				-1.1888255357916933e-07
			]
		},
		{
			"children":[
				3
			],
			"name":"Tail_3_L",
			"translation":[
				0.3859978914260864,
				-1.0850172316168027e-07,
				-8.462558298560907e-08
			]
		},
		{
			"children":[
				4
			],
			"name":"Tail_2_L",
			"translation":[
				0.4190160930156708,
				3.998366082669236e-10,
				-8.266377449217543e-08
			]
		},
		{
			"children":[
				5
			],
			"name":"Tail_1_L",
			"rotation":[
				0,
				0.7071066498756409,
				0,
				0.70710688829422
			],
			"translation":[
				0.468999981880188,
				0.29200002551078796,
				-0.3189999461174011
			]
		},
		{
			"name":"Tail_6_R",
			"translation":[
				-0.5106840133666992,
				1.245833232133009e-07,
				-7.124791068235936e-08
			]
		},
		{
			"children":[
				7
			],
			"name":"Tail_5_R",
			"translation":[
				-0.3818809986114502,
				-1.1876755934281391e-07,
				-1.195520269448025e-07
			]
		},
		{
			"children":[
				8
			],
			"name":"Tail_4_R",
			"translation":[
				-0.3939390182495117,
				-1.1027509572159033e-08,
				-1.1888258200087876e-07
			]
		},
		{
			"children":[
				9
			],
			"name":"Tail_3_R",
			"translation":[
				-0.385998010635376,
				-7.869942919569439e-08,
				4.781358420302695e-09
			]
		},
		{
			"children":[
				10
			],
			"name":"Tail_2_R",
			"translation":[
				-0.419016033411026,
				-2.0821642010560026e-07,
				-1.4226841926756606e-07
			]
		},
		{
			"children":[
				11
			],
			"name":"Tail_1_R",
			"rotation":[
				0,
				-0.7071066498756409,
				0,
				0.70710688829422
			],
			"translation":[
				-0.46900010108947754,
				0.2920001149177551,
				-0.3190000057220459
			]
		},
		{
			"name":"Tail_A_2_L",
			"translation":[
				0.2645832896232605,
				-3.594806230466929e-08,
				-2.6984457335288425e-08
			]
		},
		{
			"children":[
				13
			],
			"name":"Tail_A_1_L",
			"rotation":[
				0,
				0.7071066498756409,
				0,
				0.70710688829422
			],
			"translation":[
				0.3570000231266022,
				0.2229999303817749,
				-0.390999972820282
			]
		},
		{
			"name":"Tail_A_2_R",
			"translation":[
				-0.2645832896232605,
				-6.145754127828695e-09,
				-5.678679571019529e-08
			]
		},
		{
			"children":[
				15
			],
			"name":"Tail_A_1_R",
			"rotation":[
				0,
				-0.7071066498756409,
				0,
				0.70710688829422
			],
			"translation":[
				-0.3569999039173126,
				0.22299998998641968,
				-0.39100003242492676
			]
		},
		{
			"name":"Tail_B_2_L",
			"rotation":[
				1.6940654906118172e-21,
				-1.4210854715202004e-14,
				1.4210854715202004e-14,
				1
			],
			"translation":[
				0.24905915558338165,
				-5.816367831812386e-08,
				-1.6419687653979054e-07
			]
		},
		{
			"children":[
				17
			],
			"name":"Tail_B_1_L",
			"rotation":[
				0,
				0.7071066498756409,
				0,
				0.70710688829422
			],
			"scale":[
				0.9999999403953552,
				0.9999998211860657,
				0.9999999403953552
			],
			"translation":[
				0.5840001702308655,
				0.33100008964538574,
				-0.27400001883506775
			]
		},
		{
			"name":"Tail_B_2_R",
			"translation":[
				-0.24905909597873688,
				-1.1776826625009562e-07,
				-2.2380147868261702e-07
			]
		},
		{
			"children":[
				19
			],
			"name":"Tail_B_1_R",
			"rotation":[
				0,
				-0.7071066498756409,
				0,
				0.70710688829422
			],
			"translation":[
				-0.5840000510215759,
				0.33100003004074097,
				-0.2739998996257782
			]
		},
		{
			"name":"Tail_C_2_L",
			"translation":[
				0.25197044014930725,
				-7.325854767259443e-08,
				-8.822775754424583e-08
			]
		},
		{
			"children":[
				21
			],
			"name":"Tail_C_1_L",
			"rotation":[
				0,
				0.7071066498756409,
				0,
				0.70710688829422
			],
			"translation":[
				0.7199999690055847,
				0.36500000953674316,
				-0.21895867586135864
			]
		},
		{
			"name":"Tail_C_2_R",
			"translation":[
				-0.25197312235832214,
				-1.626654579922615e-07,
				-8.822770070082697e-08
			]
		},
		{
			"children":[
				23
			],
			"name":"Tail_C_1_R",
			"rotation":[
				0,
				-0.7071066498756409,
				0,
				0.70710688829422
			],
			"translation":[
				-0.7199999094009399,
				0.36500000953674316,
				-0.21895579993724823
			]
		},
		{
			"name":"Tail_D_2_L",
			"translation":[
				0.2549600899219513,
				-6.085353732032672e-08,
				-7.442513805244744e-08
			]
		},
		{
			"children":[
				25
			],
			"name":"Tail_D_1_L",
			"rotation":[
				0,
				0.7071066498756409,
				0,
				0.70710688829422
			],
			"translation":[
				0.8429999947547913,
				0.3850000202655792,
				-0.17199993133544922
			]
		},
		{
			"name":"Tail_D_2_R",
			"translation":[
				-0.25495821237564087,
				-9.065531969554286e-08,
				-7.44245411965494e-08
			]
		},
		{
			"children":[
				27
			],
			"name":"Tail_D_1_R",
			"rotation":[
				0,
				-0.7071066498756409,
				0,
				0.70710688829422
			],
			"translation":[
				-0.8430001139640808,
				0.3850001096725464,
				-0.17199990153312683
			]
		},
		{
			"children":[
				0,
				6,
				12,
				14,
				16,
				18,
				20,
				22,
				24,
				26,
				28
			],
			"name":"Skl_Root"
		},
		{
			"children":[
				29
			],
			"name":"Root",
			"rotation":[
				-0.7071067690849304,
				0,
				0,
				0.7071067690849304
			]
		},
		{
			"mesh":0,
			"name":"Item_Parasail__Mt_Body",
			"skin":0
		},
		{
			"mesh":1,
			"name":"Item_Parasail_Fabric__Mt_Fabric",
			"skin":0
		},
		{
			"mesh":2,
			"name":"Item_Parasail_Fabric__Mt_Fabric_UV_1",
			"skin":0
		},
		{
			"children":[
				31,
				32,
				33,
				30
			],
			"name":"Armature",
			"rotation":[
				0.70710688829422,
				0,
				0,
				0.7071066498756409
			]
		}
	],
	"materials":[
		{
			"doubleSided":true,
			"extensions":{
				"KHR_materials_specular":{
					"specularFactor":0
				},
				"KHR_materials_ior":{
					"ior":1.4499999284744263
				}
			},
			"name":"Mt_Body",
			"pbrMetallicRoughness":{
				"baseColorTexture":{
					"index":0
				},
				"metallicFactor":0,
				"roughnessFactor":0.5
			}
		},
		{
			"doubleSided":true,
			"extensions":{
				"KHR_materials_specular":{
					"specularFactor":0
				},
				"KHR_materials_ior":{
					"ior":1.4499999284744263
				}
			},
			"name":"Mt_Fabric",
			"pbrMetallicRoughness":{
				"baseColorTexture":{
					"index":1
				},
				"metallicFactor":0,
				"roughnessFactor":0.5
			}
		}
	],
	"meshes":[
		{
			"name":"Item_Parasail__Mt_Body",
			"primitives":[
				{
					"attributes":{
						"POSITION":0,
						"NORMAL":1,
						"TEXCOORD_0":2,
						"JOINTS_0":3,
						"WEIGHTS_0":4
					},
					"indices":5,
					"material":0
				}
			]
		},
		{
			"name":"Item_Parasail_Fabric__Mt_Fabric",
			"primitives":[
				{
					"attributes":{
						"POSITION":7,
						"NORMAL":8,
						"TEXCOORD_0":9,
						"JOINTS_0":10,
						"WEIGHTS_0":11
					},
					"indices":12,
					"material":1
				}
			]
		},
		{
			"name":"Item_Parasail_Fabric__Mt_Fabric.001",
			"primitives":[
				{
					"attributes":{
						"POSITION":13,
						"NORMAL":14,
						"TEXCOORD_0":15,
						"JOINTS_0":16,
						"WEIGHTS_0":17
					},
					"indices":12,
					"material":1
				}
			]
		}
	],
	"textures":[
		{
			"sampler":0,
			"source":0
		},
		{
			"sampler":0,
			"source":1
		}
	],
	"images":[
		{
			"mimeType":"image/png",
			"name":"Item_Parasail_Alb",
			"uri":"Item_Parasail_Alb.png"
		},
		{
			"mimeType":"image/png",
			"name":"Item_Parasail_Fabric_Alb",
			"uri":"Item_Parasail_Fabric_Alb.png"
		}
	],
	"skins":[
		{
			"inverseBindMatrices":6,
			"joints":[
				30,
				29,
				0,
				6,
				5,
				4,
				3,
				2,
				1,
				12,
				11,
				10,
				9,
				8,
				7,
				14,
				13,
				16,
				15,
				18,
				17,
				20,
				19,
				22,
				21,
				24,
				23,
				26,
				25,
				28,
				27
			],
			"name":"Armature"
		}
	],
	"accessors":[
		{
			"bufferView":0,
			"componentType":5126,
			"count":974,
			"max":[
				1.073241949081421,
				0.7353513836860657,
				0.8237307667732239
			],
			"min":[
				-1.073241949081421,
				-0.02377326786518097,
				-0.6484374403953552
			],
			"type":"VEC3"
		},
		{
			"bufferView":1,
			"componentType":5126,
			"count":974,
			"type":"VEC3"
		},
		{
			"bufferView":2,
			"componentType":5126,
			"count":974,
			"type":"VEC2"
		},
		{
			"bufferView":3,
			"componentType":5121,
			"count":974,
			"type":"VEC4"
		},
		{
			"bufferView":4,
			"componentType":5126,
			"count":974,
			"type":"VEC4"
		},
		{
			"bufferView":5,
			"componentType":5123,
			"count":3630,
			"type":"SCALAR"
		},
		{
			"bufferView":6,
			"componentType":5126,
			"count":31,
			"type":"MAT4"
		},
		{
			"bufferView":7,
			"componentType":5126,
			"count":1450,
			"max":[
				0.8964844346046448,
				0.6777341961860657,
				0.5019533634185791
			],
			"min":[
				-0.8964844346046448,
				0.19213874638080597,
				-2.410155773162842
			],
			"type":"VEC3"
		},
		{
			"bufferView":8,
			"componentType":5126,
			"count":1450,
			"type":"VEC3"
		},
		{
			"bufferView":9,
			"componentType":5126,
			"count":1450,
			"type":"VEC2"
		},
		{
			"bufferView":10,
			"componentType":5121,
			"count":1450,
			"type":"VEC4"
		},
		{
			"bufferView":11,
			"componentType":5126,
			"count":1450,
			"type":"VEC4"
		},
		{
			"bufferView":12,
			"componentType":5123,
			"count":4944,
			"type":"SCALAR"
		},
		{
			"bufferView":13,
			"componentType":5126,
			"count":1450,
			"max":[
				0.8964844346046448,
				0.6777341961860657,
				0.5019533634185791
			],
			"min":[
				-0.8964844346046448,
				0.19213874638080597,
				-2.410155773162842
			],
			"type":"VEC3"
		},
		{
			"bufferView":14,
			"componentType":5126,
			"count":1450,
			"type":"VEC3"
		},
		{
			"bufferView":15,
			"componentType":5126,
			"count":1450,
			"type":"VEC2"
		},
		{
			"bufferView":16,
			"componentType":5121,
			"count":1450,
			"type":"VEC4"
		},
		{
			"bufferView":17,
			"componentType":5126,
			"count":1450,
			"type":"VEC4"
		}
	],
	"bufferViews":[
		{
			"buffer":0,
			"byteLength":11688,
			"byteOffset":0,
			"target":34962
		},
		{
			"buffer":0,
			"byteLength":11688,
			"byteOffset":11688,
			"target":34962
		},
		{
			"buffer":0,
			"byteLength":7792,
			"byteOffset":23376,
			"target":34962
		},
		{
			"buffer":0,
			"byteLength":3896,
			"byteOffset":31168,
			"target":34962
		},
		{
			"buffer":0,
			"byteLength":15584,
			"byteOffset":35064,
			"target":34962
		},
		{
			"buffer":0,
			"byteLength":7260,
			"byteOffset":50648,
			"target":34963
		},
		{
			"buffer":0,
			"byteLength":1984,
			"byteOffset":57908
		},
		{
			"buffer":0,
			"byteLength":17400,
			"byteOffset":59892,
			"target":34962
		},
		{
			"buffer":0,
			"byteLength":17400,
			"byteOffset":77292,
			"target":34962
		},
		{
			"buffer":0,
			"byteLength":11600,
			"byteOffset":94692,
			"target":34962
		},
		{
			"buffer":0,
			"byteLength":5800,
			"byteOffset":106292,
			"target":34962
		},
		{
			"buffer":0,
			"byteLength":23200,
			"byteOffset":112092,
			"target":34962
		},
		{
			"buffer":0,
			"byteLength":9888,
			"byteOffset":135292,
			"target":34963
		},
		{
			"buffer":0,
			"byteLength":17400,
			"byteOffset":145180,
			"target":34962
		},
		{
			"buffer":0,
			"byteLength":17400,
			"byteOffset":162580,
			"target":34962
		},
		{
			"buffer":0,
			"byteLength":11600,
			"byteOffset":179980,
			"target":34962
		},
		{
			"buffer":0,
			"byteLength":5800,
			"byteOffset":191580,
			"target":34962
		},
		{
			"buffer":0,
			"byteLength":23200,
			"byteOffset":197380,
			"target":34962
		}
	],
	"samplers":[
		{
			"magFilter":9729,
			"minFilter":9987
		}
	],
	"buffers":[
		{
			"byteLength":220580,
			"uri":"paraglider.bin"
		}
	]
}
